<?xml version="1.0" encoding="UTF-8"?>
<svg xmlns="http://www.w3.org/2000/svg" xmlns:xlink="http://www.w3.org/1999/xlink" width="30px" height="30px" viewBox="0 0 30 30" version="1.1">
<g id="surface1">
<path style=" stroke:none;fill-rule:nonzero;fill:rgb(0%,0%,0%);fill-opacity:1;" d="M 0.734375 4.257812 C -0.230469 4.761719 -0.242188 6.015625 0.714844 6.507812 C 0.925781 6.621094 1.273438 6.621094 14.984375 6.621094 C 28.535156 6.621094 29.039062 6.613281 29.269531 6.507812 C 30.230469 6.0625 30.242188 4.761719 29.285156 4.269531 C 29.074219 4.160156 28.730469 4.160156 14.988281 4.160156 C 2.28125 4.164062 0.890625 4.171875 0.734375 4.257812 Z M 0.734375 4.257812 "/>
<path style=" stroke:none;fill-rule:nonzero;fill:rgb(0%,0%,0%);fill-opacity:1;" d="M 0.875 13.792969 C 0.523438 13.914062 0.289062 14.121094 0.140625 14.4375 C -0.164062 15.09375 0.0820312 15.789062 0.726562 16.089844 L 1.027344 16.230469 L 28.976562 16.230469 L 29.273438 16.089844 C 29.9375 15.785156 30.175781 15.070312 29.835938 14.40625 C 29.667969 14.074219 29.425781 13.867188 29.070312 13.769531 C 28.929688 13.734375 24.101562 13.710938 14.972656 13.710938 C 3.773438 13.714844 1.042969 13.726562 0.875 13.792969 Z M 0.875 13.792969 "/>
<path style=" stroke:none;fill-rule:nonzero;fill:rgb(0%,0%,0%);fill-opacity:1;" d="M 0.734375 23.429688 C 0.125 23.707031 -0.164062 24.449219 0.113281 25.046875 C 0.222656 25.300781 0.570312 25.632812 0.804688 25.726562 C 0.996094 25.796875 29.003906 25.796875 29.199219 25.726562 C 29.433594 25.632812 29.777344 25.300781 29.890625 25.046875 C 30.164062 24.449219 29.878906 23.707031 29.269531 23.429688 C 29.046875 23.324219 28.449219 23.320312 15 23.320312 C 1.554688 23.320312 0.957031 23.324219 0.734375 23.429688 Z M 0.734375 23.429688 "/>
</g>
</svg>
