<?xml version="1.0" encoding="UTF-8"?>
<svg xmlns="http://www.w3.org/2000/svg" xmlns:xlink="http://www.w3.org/1999/xlink" width="30px" height="30px" viewBox="0 0 30 30" version="1.1">
<g id="surface1">
<path style=" stroke:none;fill-rule:nonzero;fill:rgb(0%,0%,0%);fill-opacity:1;" d="M 14.503906 0.285156 C 14.34375 0.34375 12.773438 1.164062 11.023438 2.113281 C 8.179688 3.648438 7.804688 3.867188 7.636719 4.089844 C 7.261719 4.582031 7.265625 4.535156 7.265625 8.851562 L 7.265625 12.765625 L 6.347656 13.265625 C 5.835938 13.539062 4.367188 14.324219 3.078125 15.015625 C 0.46875 16.410156 0.257812 16.558594 0.09375 17.113281 C 0.0117188 17.382812 0 17.953125 0 21.386719 C 0 25.890625 -0.0195312 25.714844 0.464844 26.183594 C 0.679688 26.394531 1.355469 26.757812 3.925781 28.070312 C 5.683594 28.960938 7.238281 29.722656 7.382812 29.765625 C 7.53125 29.804688 7.765625 29.816406 7.910156 29.800781 C 8.191406 29.757812 10.53125 28.617188 10.769531 28.398438 C 10.847656 28.328125 10.898438 28.210938 10.898438 28.113281 C 10.898438 27.914062 10.671875 27.65625 10.496094 27.65625 C 10.429688 27.65625 9.890625 27.90625 9.292969 28.210938 C 8.703125 28.515625 8.199219 28.769531 8.179688 28.769531 C 8.164062 28.769531 8.152344 27 8.15625 24.84375 L 8.175781 20.910156 L 11.328125 19.304688 C 13.0625 18.421875 14.492188 17.695312 14.507812 17.695312 C 14.519531 17.695312 14.53125 19.457031 14.53125 21.613281 L 14.53125 25.539062 L 13.347656 26.144531 C 12.691406 26.472656 12.101562 26.804688 12.03125 26.875 C 11.953125 26.945312 11.894531 27.074219 11.894531 27.15625 C 11.894531 27.339844 12.136719 27.597656 12.3125 27.597656 C 12.375 27.597656 13.015625 27.304688 13.730469 26.941406 L 15.019531 26.285156 L 15.375 26.472656 C 15.574219 26.578125 17.117188 27.367188 18.808594 28.230469 L 21.886719 29.792969 L 22.707031 29.792969 L 24.875 28.679688 C 26.070312 28.070312 27.546875 27.320312 28.15625 27.011719 C 29.414062 26.367188 29.742188 26.109375 29.902344 25.632812 C 29.988281 25.382812 30 24.929688 30 21.386719 C 30 17.953125 29.988281 17.382812 29.90625 17.113281 C 29.753906 16.597656 29.457031 16.363281 27.9375 15.554688 L 26.621094 14.851562 L 26.703125 14.617188 C 26.878906 14.125 26.964844 13.597656 26.964844 13.023438 C 26.964844 12.011719 26.800781 11.542969 26.4375 11.542969 C 26.082031 11.542969 25.921875 11.800781 26.023438 12.234375 C 26.117188 12.648438 26.097656 13.511719 25.988281 13.945312 C 25.8125 14.648438 25.511719 15.152344 24.960938 15.703125 C 24.195312 16.46875 23.363281 16.828125 22.324219 16.832031 C 21.691406 16.832031 21.234375 16.738281 20.695312 16.488281 C 19.0625 15.738281 18.175781 13.980469 18.546875 12.214844 C 18.769531 11.136719 19.578125 10.101562 20.566406 9.613281 C 22.054688 8.886719 23.738281 9.144531 24.96875 10.292969 C 25.179688 10.488281 25.308594 10.5625 25.429688 10.5625 C 25.683594 10.5625 25.839844 10.398438 25.839844 10.136719 C 25.839844 9.949219 25.792969 9.878906 25.535156 9.625 C 23.671875 7.878906 20.8125 7.890625 19.007812 9.667969 C 18.382812 10.28125 18.058594 10.804688 17.785156 11.660156 C 17.636719 12.105469 17.621094 12.246094 17.613281 12.976562 C 17.609375 13.761719 17.679688 14.191406 17.902344 14.769531 C 17.9375 14.859375 17.847656 14.910156 16.042969 15.878906 L 15.46875 16.183594 L 15.46875 8.347656 L 18.582031 6.765625 C 20.292969 5.894531 21.726562 5.179688 21.773438 5.167969 C 21.84375 5.148438 21.855469 5.285156 21.855469 5.992188 C 21.855469 6.796875 21.863281 6.835938 21.992188 6.960938 C 22.160156 7.117188 22.382812 7.125 22.566406 6.976562 C 22.707031 6.867188 22.707031 6.847656 22.707031 5.757812 L 22.707031 4.65625 L 22.53125 4.339844 C 22.4375 4.164062 22.261719 3.949219 22.148438 3.859375 C 21.855469 3.632812 15.65625 0.316406 15.375 0.238281 C 15.058594 0.152344 14.84375 0.164062 14.503906 0.285156 Z M 18.242188 2.71875 C 19.90625 3.609375 21.269531 4.363281 21.269531 4.382812 C 21.269531 4.40625 19.859375 5.136719 18.136719 6.011719 L 15.007812 7.605469 L 11.835938 5.992188 L 8.667969 4.382812 L 10.851562 3.210938 C 12.054688 2.566406 13.449219 1.816406 13.945312 1.539062 C 14.621094 1.175781 14.902344 1.054688 15.03125 1.066406 C 15.128906 1.078125 16.570312 1.820312 18.242188 2.71875 Z M 11.425781 6.765625 L 14.53125 8.347656 L 14.53125 16.175781 L 14.402344 16.105469 C 14.027344 15.90625 8.660156 13.03125 8.425781 12.894531 L 8.144531 12.742188 L 8.144531 8.945312 C 8.144531 5.589844 8.15625 5.148438 8.234375 5.167969 C 8.28125 5.179688 9.722656 5.894531 11.425781 6.765625 Z M 10.875 15.214844 C 12.597656 16.140625 14.003906 16.910156 14.003906 16.925781 C 14.003906 16.949219 12.585938 17.683594 10.859375 18.554688 L 7.71875 20.15625 L 5.925781 19.242188 C 4.941406 18.738281 3.515625 18.003906 2.765625 17.625 L 1.394531 16.921875 L 4.523438 15.234375 C 6.242188 14.308594 7.671875 13.546875 7.699219 13.539062 C 7.722656 13.535156 9.152344 14.289062 10.875 15.214844 Z M 18.644531 15.996094 C 19.242188 16.738281 20.175781 17.332031 21.125 17.578125 C 21.46875 17.671875 21.773438 17.699219 22.265625 17.699219 C 23.105469 17.699219 23.660156 17.570312 24.433594 17.183594 C 24.921875 16.945312 25.074219 16.828125 25.617188 16.28125 L 26.246094 15.65625 L 27.417969 16.277344 C 28.0625 16.621094 28.566406 16.921875 28.546875 16.9375 C 28.523438 16.960938 27.105469 17.695312 25.402344 18.566406 L 22.289062 20.148438 L 19.144531 18.554688 C 17.414062 17.675781 15.996094 16.949219 15.996094 16.933594 C 15.996094 16.890625 18.300781 15.644531 18.347656 15.660156 C 18.363281 15.667969 18.5 15.820312 18.644531 15.996094 Z M 4.101562 19.292969 L 7.238281 20.886719 L 7.253906 24.832031 L 7.265625 28.773438 L 4.59375 27.414062 C 1.113281 25.652344 1.101562 25.644531 0.984375 25.445312 C 0.886719 25.292969 0.878906 24.996094 0.878906 21.484375 C 0.878906 19.398438 0.898438 17.695312 0.925781 17.695312 C 0.949219 17.695312 2.378906 18.414062 4.101562 19.292969 Z M 18.726562 19.324219 L 21.828125 20.910156 L 21.84375 24.835938 C 21.851562 27 21.839844 28.769531 21.820312 28.769531 C 21.796875 28.769531 21.328125 28.535156 20.777344 28.246094 C 20.226562 27.964844 18.808594 27.234375 17.625 26.636719 L 15.46875 25.539062 L 15.46875 21.609375 C 15.46875 18.390625 15.480469 17.6875 15.546875 17.710938 C 15.585938 17.730469 17.015625 18.457031 18.726562 19.324219 Z M 29.121094 21.472656 C 29.121094 24.703125 29.109375 25.28125 29.035156 25.429688 C 28.929688 25.640625 28.90625 25.652344 25.53125 27.355469 L 22.734375 28.773438 L 22.746094 24.835938 L 22.765625 20.894531 L 25.898438 19.292969 C 27.621094 18.414062 29.050781 17.695312 29.082031 17.695312 C 29.105469 17.695312 29.121094 19.394531 29.121094 21.472656 Z M 29.121094 21.472656 "/>
<path style=" stroke:none;fill-rule:nonzero;fill:rgb(0%,0%,0%);fill-opacity:1;" d="M 24.054688 11.484375 C 23.953125 11.519531 22.636719 12.871094 21.902344 13.675781 L 21.699219 13.910156 L 21.070312 13.339844 C 20.574219 12.882812 20.414062 12.773438 20.273438 12.773438 C 20.039062 12.773438 19.863281 12.953125 19.863281 13.207031 C 19.863281 13.386719 19.941406 13.476562 20.683594 14.171875 C 21.398438 14.839844 21.535156 14.941406 21.703125 14.941406 C 21.878906 14.941406 21.996094 14.839844 22.917969 13.867188 C 24.691406 12.011719 24.628906 12.085938 24.628906 11.886719 C 24.628906 11.601562 24.3125 11.378906 24.054688 11.484375 Z M 24.054688 11.484375 "/>
</g>
</svg>
