<?xml version="1.0" encoding="UTF-8"?>
<svg xmlns="http://www.w3.org/2000/svg" xmlns:xlink="http://www.w3.org/1999/xlink" width="30px" height="30px" viewBox="0 0 30 30" version="1.1">
<g id="surface1">
<path style=" stroke:none;fill-rule:nonzero;fill:rgb(0%,0%,0%);fill-opacity:1;" d="M 9.757812 2.675781 C 9.570312 2.730469 9.324219 2.921875 9.230469 3.105469 C 9.160156 3.238281 9.140625 3.53125 9.140625 4.511719 L 9.140625 5.742188 L 8.46875 5.742188 C 7.722656 5.742188 7.558594 5.789062 7.3125 6.082031 L 7.171875 6.25 L 6.851562 5.699219 C 6.433594 4.980469 6.113281 4.773438 5.644531 4.9375 C 5.367188 5.039062 2.070312 6.9375 1.894531 7.101562 C 1.722656 7.257812 1.617188 7.582031 1.660156 7.828125 C 1.675781 7.933594 1.894531 8.359375 2.132812 8.78125 C 2.378906 9.199219 2.578125 9.554688 2.578125 9.574219 C 2.578125 9.585938 2.167969 9.609375 1.664062 9.621094 L 0.75 9.636719 L 0.609375 9.800781 C 0.46875 9.964844 0.46875 9.976562 0.46875 11.21875 C 0.46875 12.445312 0.476562 12.472656 0.605469 12.632812 C 0.710938 12.753906 0.808594 12.796875 1.042969 12.820312 L 1.34375 12.84375 L 1.578125 13.585938 C 1.707031 13.992188 2.339844 16.054688 2.988281 18.164062 C 4.253906 22.269531 4.371094 22.574219 4.941406 23.261719 L 5.25 23.636719 L 5.203125 23.929688 C 5.144531 24.296875 5.226562 24.953125 5.390625 25.386719 C 5.742188 26.332031 6.621094 27.070312 7.640625 27.285156 C 9.160156 27.609375 10.777344 26.601562 11.15625 25.09375 L 11.226562 24.8125 L 13.054688 24.796875 C 14.0625 24.789062 14.882812 24.800781 14.882812 24.824219 C 14.882812 24.855469 14.800781 25.125 14.707031 25.429688 C 14.609375 25.726562 14.53125 26.074219 14.53125 26.191406 C 14.539062 26.648438 14.941406 27.175781 15.394531 27.296875 C 15.703125 27.386719 28.359375 27.386719 28.671875 27.296875 C 29.117188 27.175781 29.527344 26.648438 29.53125 26.195312 C 29.53125 26.085938 29.386719 25.523438 29.203125 24.941406 L 28.875 23.882812 L 29.035156 23.089844 C 29.691406 19.6875 29.691406 15.878906 29.035156 12.472656 L 28.875 11.683594 L 29.203125 10.621094 C 29.386719 10.042969 29.53125 9.480469 29.53125 9.367188 C 29.527344 8.917969 29.117188 8.390625 28.671875 8.265625 C 28.523438 8.226562 26.539062 8.203125 22.730469 8.203125 L 17.011719 8.203125 L 16.96875 7.851562 C 16.941406 7.597656 16.886719 7.453125 16.769531 7.316406 C 16.53125 7.03125 16.324219 6.972656 15.503906 6.972656 L 14.773438 6.972656 L 14.753906 5.101562 C 14.738281 3.316406 14.730469 3.222656 14.613281 3.070312 C 14.550781 2.980469 14.421875 2.851562 14.332031 2.789062 C 14.179688 2.671875 14.09375 2.664062 12.023438 2.652344 C 10.839844 2.652344 9.820312 2.660156 9.757812 2.675781 Z M 13.816406 5.285156 L 13.828125 6.972656 L 12.714844 6.972656 L 12.714844 6.625 C 12.714844 6.332031 12.691406 6.246094 12.558594 6.085938 C 12.300781 5.78125 12.125 5.742188 11.046875 5.742188 L 10.078125 5.742188 L 10.078125 3.574219 L 11.941406 3.585938 L 13.800781 3.601562 Z M 6.5 6.964844 L 7.089844 7.984375 L 7.089844 9.609375 L 5.386719 9.597656 L 3.679688 9.578125 L 3.160156 8.683594 C 2.871094 8.183594 2.636719 7.761719 2.636719 7.746094 C 2.636719 7.722656 2.960938 7.523438 3.359375 7.292969 C 3.75 7.070312 4.464844 6.65625 4.953125 6.375 C 5.433594 6.09375 5.847656 5.882812 5.871094 5.90625 C 5.894531 5.929688 6.175781 6.402344 6.5 6.964844 Z M 11.777344 8.144531 L 11.777344 9.609375 L 8.027344 9.609375 L 8.027344 6.679688 L 11.777344 6.679688 Z M 16.042969 8.0625 C 16.0625 8.171875 16.027344 8.191406 15.710938 8.21875 C 15.207031 8.261719 14.878906 8.464844 14.683594 8.859375 C 14.601562 9.023438 14.53125 9.261719 14.53125 9.386719 L 14.53125 9.609375 L 12.714844 9.609375 L 12.714844 8.800781 C 12.714844 8.355469 12.734375 7.96875 12.757812 7.949219 C 12.78125 7.925781 13.523438 7.914062 14.410156 7.921875 C 16.003906 7.9375 16.027344 7.9375 16.042969 8.0625 Z M 28.484375 9.199219 C 28.542969 9.234375 28.59375 9.296875 28.59375 9.339844 C 28.59375 9.378906 28.449219 9.890625 28.273438 10.464844 C 28.097656 11.042969 27.949219 11.582031 27.949219 11.675781 C 27.949219 11.765625 28.015625 12.175781 28.097656 12.585938 C 28.746094 15.835938 28.746094 19.726562 28.097656 22.980469 C 28.015625 23.390625 27.949219 23.800781 27.949219 23.894531 C 27.949219 23.980469 28.097656 24.519531 28.273438 25.089844 C 28.449219 25.65625 28.59375 26.148438 28.59375 26.179688 C 28.59375 26.214844 28.554688 26.285156 28.5 26.332031 C 28.417969 26.414062 27.757812 26.425781 22.054688 26.425781 C 17.785156 26.425781 15.65625 26.40625 15.582031 26.367188 C 15.523438 26.332031 15.46875 26.261719 15.46875 26.207031 C 15.46875 26.15625 15.617188 25.640625 15.796875 25.058594 C 16.167969 23.875 16.160156 24.011719 15.914062 22.703125 C 15.585938 20.96875 15.503906 20.015625 15.503906 17.78125 C 15.503906 15.550781 15.585938 14.59375 15.914062 12.859375 C 16.160156 11.554688 16.167969 11.6875 15.796875 10.503906 C 15.617188 9.917969 15.46875 9.402344 15.46875 9.351562 C 15.46875 9.304688 15.515625 9.234375 15.574219 9.203125 C 15.714844 9.121094 28.324219 9.117188 28.484375 9.199219 Z M 15.011719 11.148438 C 15.113281 11.460938 15.171875 11.757812 15.152344 11.804688 C 15.125 11.882812 14.273438 11.894531 8.261719 11.894531 L 1.40625 11.894531 L 1.40625 10.546875 L 8.121094 10.558594 L 14.84375 10.574219 Z M 14.917969 13.019531 C 14.824219 13.488281 14.648438 15.058594 14.585938 15.996094 C 14.503906 17.226562 14.550781 19.523438 14.679688 20.742188 C 14.773438 21.613281 15.019531 23.191406 15.117188 23.554688 C 15.152344 23.664062 15.175781 23.777344 15.175781 23.804688 C 15.175781 23.828125 14.292969 23.839844 13.207031 23.835938 L 11.234375 23.816406 L 11.152344 23.5 C 10.886719 22.464844 9.921875 21.542969 8.867188 21.320312 C 8.398438 21.226562 7.613281 21.28125 7.191406 21.445312 C 6.722656 21.621094 6.171875 22.007812 5.878906 22.371094 L 5.632812 22.667969 L 5.421875 22.351562 C 5.304688 22.175781 5.175781 21.941406 5.128906 21.824219 C 5.046875 21.636719 2.34375 12.929688 2.34375 12.859375 C 2.34375 12.84375 5.179688 12.832031 8.648438 12.832031 L 14.960938 12.832031 Z M 9.089844 22.394531 C 9.535156 22.597656 9.84375 22.890625 10.085938 23.332031 C 10.273438 23.683594 10.285156 23.730469 10.285156 24.285156 C 10.285156 24.996094 10.179688 25.265625 9.726562 25.746094 C 9.199219 26.308594 8.460938 26.523438 7.734375 26.34375 C 7.050781 26.167969 6.597656 25.78125 6.292969 25.105469 C 6.164062 24.835938 6.136719 24.683594 6.140625 24.320312 C 6.140625 23.367188 6.667969 22.632812 7.605469 22.28125 C 7.953125 22.152344 8.691406 22.210938 9.089844 22.394531 Z M 9.089844 22.394531 "/>
<path style=" stroke:none;fill-rule:nonzero;fill:rgb(0%,0%,0%);fill-opacity:1;" d="M 18.304688 11.261719 C 18.03125 11.390625 17.976562 11.765625 18.195312 11.980469 L 18.335938 12.128906 L 25.730469 12.128906 L 25.871094 11.980469 C 26.0625 11.789062 26.058594 11.570312 25.847656 11.359375 L 25.675781 11.191406 L 22.050781 11.195312 C 19.683594 11.195312 18.386719 11.21875 18.304688 11.261719 Z M 18.304688 11.261719 "/>
<path style=" stroke:none;fill-rule:nonzero;fill:rgb(0%,0%,0%);fill-opacity:1;" d="M 19.367188 13.679688 C 19.136719 13.902344 19.207031 14.277344 19.496094 14.40625 C 19.589844 14.449219 20.410156 14.472656 22.066406 14.472656 L 24.503906 14.472656 L 24.675781 14.300781 C 24.886719 14.089844 24.890625 13.875 24.699219 13.679688 L 24.558594 13.535156 L 19.507812 13.535156 Z M 19.367188 13.679688 "/>
<path style=" stroke:none;fill-rule:nonzero;fill:rgb(0%,0%,0%);fill-opacity:1;" d="M 19.484375 21.164062 C 19.183594 21.332031 19.132812 21.65625 19.367188 21.882812 L 19.507812 22.03125 L 24.558594 22.03125 L 24.699219 21.882812 C 24.925781 21.660156 24.855469 21.285156 24.570312 21.15625 C 24.371094 21.0625 19.648438 21.070312 19.484375 21.164062 Z M 19.484375 21.164062 "/>
<path style=" stroke:none;fill-rule:nonzero;fill:rgb(0%,0%,0%);fill-opacity:1;" d="M 18.171875 23.589844 C 18.007812 23.792969 18.019531 23.980469 18.1875 24.179688 L 18.328125 24.34375 L 25.734375 24.34375 L 25.875 24.179688 C 26.058594 23.96875 26.058594 23.765625 25.871094 23.582031 L 25.730469 23.4375 L 18.289062 23.4375 Z M 18.171875 23.589844 "/>
<path style=" stroke:none;fill-rule:nonzero;fill:rgb(0%,0%,0%);fill-opacity:1;" d="M 7.710938 22.878906 C 7.132812 23.085938 6.726562 23.675781 6.734375 24.308594 C 6.734375 24.765625 6.878906 25.09375 7.226562 25.410156 C 7.992188 26.121094 9.195312 25.855469 9.609375 24.890625 C 9.714844 24.644531 9.734375 24.507812 9.714844 24.199219 C 9.679688 23.746094 9.574219 23.511719 9.253906 23.203125 C 8.867188 22.828125 8.234375 22.691406 7.710938 22.878906 Z M 8.621094 23.898438 C 9.046875 24.328125 8.621094 25.03125 8.046875 24.835938 C 7.800781 24.753906 7.664062 24.5625 7.664062 24.273438 C 7.664062 24.105469 7.707031 24.023438 7.847656 23.894531 C 8.097656 23.664062 8.386719 23.671875 8.621094 23.898438 Z M 8.621094 23.898438 "/>
</g>
</svg>
