<?xml version="1.0" encoding="UTF-8"?>
<svg xmlns="http://www.w3.org/2000/svg" xmlns:xlink="http://www.w3.org/1999/xlink" width="30px" height="30px" viewBox="0 0 30 30" version="1.1">
<g id="surface1">
<path style=" stroke:none;fill-rule:nonzero;fill:rgb(0%,0%,0%);fill-opacity:1;" d="M 5.351562 1.160156 C 4.535156 1.453125 4.144531 1.992188 4.066406 2.921875 L 4.027344 3.398438 L 3.140625 3.398438 C 2.164062 3.398438 1.757812 3.46875 1.277344 3.730469 C 0.851562 3.964844 0.421875 4.417969 0.210938 4.855469 L 0.03125 5.242188 L 0.0117188 10.417969 L -0.0078125 15.589844 L 0.199219 15.796875 C 0.410156 16.007812 0.59375 16.042969 0.851562 15.925781 C 1.171875 15.777344 1.171875 15.761719 1.171875 12.800781 L 1.171875 10.078125 L 14.988281 10.089844 L 28.800781 10.105469 L 28.800781 26.6875 L 28.640625 26.988281 C 28.449219 27.363281 28.136719 27.625 27.796875 27.707031 C 27.441406 27.800781 2.5625 27.796875 2.199219 27.707031 C 1.851562 27.621094 1.511719 27.316406 1.34375 26.941406 L 1.203125 26.628906 L 1.171875 23.496094 C 1.15625 21.773438 1.121094 20.3125 1.089844 20.253906 C 1.03125 20.132812 0.757812 19.980469 0.585938 19.980469 C 0.382812 19.980469 0.140625 20.136719 0.0664062 20.320312 C 0.0117188 20.441406 0 21.296875 0.0117188 23.648438 C 0.03125 26.746094 0.0351562 26.8125 0.164062 27.152344 C 0.234375 27.34375 0.359375 27.609375 0.433594 27.742188 C 0.617188 28.042969 1.085938 28.488281 1.394531 28.644531 C 2.011719 28.960938 1.296875 28.945312 14.984375 28.945312 C 24.03125 28.945312 27.738281 28.925781 27.960938 28.878906 C 28.648438 28.734375 29.34375 28.195312 29.671875 27.550781 C 30.019531 26.863281 30 27.457031 29.988281 15.894531 L 29.972656 5.300781 L 29.785156 4.902344 C 29.449219 4.207031 28.746094 3.632812 28.003906 3.460938 C 27.863281 3.425781 27.398438 3.398438 26.976562 3.398438 L 26.210938 3.398438 L 26.179688 2.910156 C 26.152344 2.355469 26.015625 2.003906 25.695312 1.652344 C 25.019531 0.902344 23.785156 0.882812 23.058594 1.609375 C 22.734375 1.933594 22.566406 2.355469 22.519531 2.921875 L 22.484375 3.398438 L 20.058594 3.398438 L 20.027344 2.910156 C 20 2.355469 19.863281 2.003906 19.542969 1.652344 C 18.867188 0.902344 17.632812 0.882812 16.90625 1.609375 C 16.582031 1.933594 16.414062 2.355469 16.367188 2.921875 L 16.332031 3.398438 L 13.90625 3.398438 L 13.875 2.90625 C 13.816406 1.804688 13.113281 1.09375 12.070312 1.089844 C 11.023438 1.078125 10.300781 1.792969 10.214844 2.921875 L 10.179688 3.398438 L 7.753906 3.398438 L 7.722656 2.90625 C 7.695312 2.320312 7.507812 1.878906 7.136719 1.550781 C 6.652344 1.105469 5.929688 0.953125 5.351562 1.160156 Z M 6.183594 2.308594 C 6.535156 2.453125 6.5625 2.589844 6.5625 4.042969 C 6.5625 5.464844 6.535156 5.601562 6.210938 5.769531 C 5.988281 5.886719 5.773438 5.882812 5.566406 5.757812 C 5.261719 5.582031 5.246094 5.484375 5.246094 4.035156 C 5.246094 2.777344 5.25 2.695312 5.367188 2.535156 C 5.589844 2.238281 5.835938 2.167969 6.183594 2.308594 Z M 12.335938 2.308594 C 12.6875 2.453125 12.714844 2.589844 12.714844 4.042969 C 12.714844 5.464844 12.6875 5.601562 12.363281 5.769531 C 12.140625 5.886719 11.925781 5.882812 11.71875 5.757812 C 11.414062 5.582031 11.398438 5.484375 11.398438 4.035156 C 11.398438 2.777344 11.402344 2.695312 11.519531 2.535156 C 11.742188 2.238281 11.988281 2.167969 12.335938 2.308594 Z M 18.488281 2.308594 C 18.839844 2.453125 18.867188 2.589844 18.867188 4.042969 C 18.867188 5.464844 18.839844 5.601562 18.515625 5.769531 C 18.304688 5.882812 18.089844 5.882812 17.882812 5.777344 C 17.574219 5.617188 17.550781 5.496094 17.550781 4.035156 C 17.550781 2.777344 17.554688 2.695312 17.671875 2.535156 C 17.894531 2.238281 18.140625 2.167969 18.488281 2.308594 Z M 24.640625 2.308594 C 24.992188 2.453125 25.019531 2.589844 25.019531 4.042969 C 25.019531 5.464844 24.992188 5.601562 24.667969 5.769531 C 24.445312 5.886719 24.230469 5.882812 24.023438 5.757812 C 23.71875 5.582031 23.703125 5.484375 23.703125 4.035156 C 23.703125 2.777344 23.707031 2.695312 23.824219 2.535156 C 24.046875 2.238281 24.292969 2.167969 24.640625 2.308594 Z M 4.0625 5.109375 C 4.097656 5.546875 4.136719 5.722656 4.277344 6.015625 C 4.957031 7.394531 6.9375 7.351562 7.566406 5.945312 C 7.664062 5.734375 7.707031 5.507812 7.722656 5.109375 L 7.746094 4.570312 L 10.179688 4.570312 L 10.214844 5.109375 C 10.242188 5.542969 10.285156 5.710938 10.429688 6.011719 C 11.117188 7.40625 13.089844 7.351562 13.730469 5.921875 C 13.816406 5.734375 13.859375 5.488281 13.875 5.109375 L 13.898438 4.570312 L 16.332031 4.570312 L 16.367188 5.109375 C 16.394531 5.542969 16.4375 5.710938 16.582031 6.011719 C 17.25 7.375 19.171875 7.363281 19.847656 5.988281 C 19.976562 5.71875 20.011719 5.558594 20.027344 5.113281 L 20.050781 4.570312 L 22.484375 4.570312 L 22.511719 5.097656 C 22.542969 5.535156 22.578125 5.695312 22.730469 6.003906 C 23.402344 7.375 25.324219 7.363281 26 5.988281 C 26.128906 5.71875 26.164062 5.558594 26.179688 5.113281 L 26.203125 4.570312 L 26.917969 4.570312 C 27.3125 4.570312 27.714844 4.59375 27.828125 4.628906 C 28.148438 4.722656 28.476562 4.984375 28.660156 5.300781 L 28.828125 5.59375 L 28.828125 8.90625 L 1.171875 8.90625 L 1.171875 7.21875 C 1.171875 5.582031 1.179688 5.53125 1.308594 5.308594 C 1.464844 5.03125 1.78125 4.761719 2.085938 4.65625 C 2.238281 4.597656 2.597656 4.574219 3.171875 4.570312 L 4.027344 4.570312 Z M 4.0625 5.109375 "/>
<path style=" stroke:none;fill-rule:nonzero;fill:rgb(0%,0%,0%);fill-opacity:1;" d="M 11.574219 11.683594 C 10.816406 11.871094 10.285156 12.390625 10.027344 13.195312 C 9.886719 13.628906 10.132812 14.003906 10.554688 14.003906 C 10.824219 14.003906 11.046875 13.832031 11.140625 13.546875 C 11.246094 13.207031 11.457031 12.964844 11.742188 12.859375 C 12.371094 12.621094 13.007812 13.066406 13.007812 13.738281 C 13.007812 14.226562 12.6875 14.601562 12.1875 14.683594 C 11.835938 14.742188 11.660156 14.835938 11.574219 15.003906 C 11.355469 15.414062 11.597656 15.789062 12.117188 15.871094 C 12.652344 15.953125 13.007812 16.328125 13.007812 16.796875 C 13.007812 17.34375 12.691406 17.695312 12.152344 17.742188 C 11.601562 17.789062 11.222656 17.460938 11.128906 16.851562 C 11.046875 16.359375 10.660156 16.113281 10.273438 16.304688 C 10.019531 16.441406 9.9375 16.632812 9.980469 17.042969 C 10.042969 17.757812 10.519531 18.425781 11.179688 18.738281 C 11.472656 18.878906 11.585938 18.894531 12.101562 18.894531 C 12.628906 18.894531 12.714844 18.878906 12.996094 18.730469 C 13.4375 18.496094 13.722656 18.222656 13.945312 17.800781 C 14.117188 17.484375 14.152344 17.359375 14.167969 16.933594 C 14.199219 16.351562 14.074219 15.941406 13.742188 15.507812 L 13.542969 15.25 L 13.6875 15.109375 C 13.765625 15.039062 13.90625 14.828125 13.992188 14.652344 C 14.132812 14.359375 14.152344 14.261719 14.152344 13.738281 C 14.152344 13.054688 14.050781 12.773438 13.648438 12.332031 C 13.335938 11.992188 12.972656 11.78125 12.546875 11.683594 C 12.152344 11.589844 11.960938 11.589844 11.574219 11.683594 Z M 11.574219 11.683594 "/>
<path style=" stroke:none;fill-rule:nonzero;fill:rgb(0%,0%,0%);fill-opacity:1;" d="M 17.140625 11.683594 C 16.425781 11.859375 15.84375 12.320312 15.515625 12.988281 L 15.324219 13.386719 L 15.324219 17.144531 L 15.546875 17.589844 C 15.804688 18.121094 16.144531 18.445312 16.699219 18.714844 C 17.046875 18.878906 17.132812 18.894531 17.667969 18.894531 C 18.199219 18.894531 18.289062 18.878906 18.632812 18.714844 C 19.300781 18.398438 19.695312 17.964844 19.921875 17.285156 C 20.039062 16.9375 20.046875 16.820312 20.027344 15.152344 L 20.011719 13.386719 L 19.851562 13.054688 C 19.519531 12.332031 18.945312 11.859375 18.230469 11.695312 C 17.753906 11.582031 17.542969 11.582031 17.140625 11.683594 Z M 18.007812 12.835938 C 18.28125 12.914062 18.605469 13.1875 18.757812 13.480469 C 18.855469 13.6875 18.867188 13.839844 18.867188 15.28125 C 18.867188 16.816406 18.863281 16.863281 18.734375 17.113281 C 18.65625 17.253906 18.480469 17.449219 18.347656 17.546875 C 18.125 17.707031 18.046875 17.722656 17.667969 17.722656 C 17.285156 17.722656 17.210938 17.707031 16.988281 17.546875 C 16.851562 17.449219 16.675781 17.253906 16.601562 17.113281 C 16.472656 16.863281 16.464844 16.816406 16.464844 15.28125 C 16.464844 13.84375 16.476562 13.6875 16.578125 13.488281 C 16.863281 12.929688 17.421875 12.671875 18.007812 12.835938 Z M 18.007812 12.835938 "/>
<path style=" stroke:none;fill-rule:nonzero;fill:rgb(0%,0%,0%);fill-opacity:1;" d="M 0.375 17.453125 C 0.199219 17.53125 0 17.800781 0 17.96875 C 0 18.703125 1.054688 18.789062 1.15625 18.070312 C 1.179688 17.863281 1.160156 17.800781 1.019531 17.640625 C 0.839844 17.449219 0.574219 17.371094 0.375 17.453125 Z M 0.375 17.453125 "/>
<path style=" stroke:none;fill-rule:nonzero;fill:rgb(0%,0%,0%);fill-opacity:1;" d="M 7.335938 20.917969 C 7.230469 20.980469 7.121094 21.105469 7.085938 21.191406 C 7.050781 21.285156 7.03125 22.101562 7.042969 23.359375 L 7.0625 25.382812 L 7.460938 25.734375 L 8.316406 25.710938 C 9.046875 25.691406 9.210938 25.667969 9.476562 25.550781 C 9.855469 25.382812 10.324219 24.894531 10.519531 24.472656 C 10.851562 23.753906 10.847656 22.738281 10.507812 22.019531 C 10.078125 21.105469 9.492188 20.800781 8.175781 20.800781 C 7.636719 20.800781 7.5 20.816406 7.335938 20.917969 Z M 8.917969 22.03125 C 9.734375 22.257812 9.851562 23.898438 9.089844 24.414062 C 8.9375 24.515625 8.808594 24.550781 8.550781 24.550781 L 8.203125 24.550781 L 8.203125 21.972656 L 8.457031 21.972656 C 8.589844 21.972656 8.800781 22 8.917969 22.03125 Z M 8.917969 22.03125 "/>
<path style=" stroke:none;fill-rule:nonzero;fill:rgb(0%,0%,0%);fill-opacity:1;" d="M 12.96875 20.882812 C 12.867188 20.929688 12.746094 21.039062 12.699219 21.132812 C 12.539062 21.4375 11.191406 25.03125 11.191406 25.140625 C 11.191406 25.441406 11.484375 25.722656 11.785156 25.722656 C 12.09375 25.722656 12.269531 25.523438 12.480469 24.941406 L 12.539062 24.785156 L 13.953125 24.785156 L 14.117188 25.160156 C 14.308594 25.582031 14.46875 25.722656 14.753906 25.722656 C 15.03125 25.722656 15.292969 25.453125 15.292969 25.175781 C 15.292969 24.867188 13.910156 21.222656 13.71875 21.015625 C 13.523438 20.824219 13.226562 20.765625 12.96875 20.882812 Z M 13.289062 23.601562 C 13.160156 23.613281 13.042969 23.605469 13.03125 23.59375 C 13.015625 23.582031 13.0625 23.414062 13.132812 23.230469 L 13.261719 22.886719 L 13.390625 23.238281 L 13.519531 23.582031 Z M 13.289062 23.601562 "/>
<path style=" stroke:none;fill-rule:nonzero;fill:rgb(0%,0%,0%);fill-opacity:1;" d="M 15.667969 20.910156 C 15.464844 21.035156 15.339844 21.304688 15.394531 21.515625 C 15.417969 21.589844 15.691406 22.046875 16.007812 22.535156 L 16.582031 23.417969 L 16.582031 24.390625 C 16.582031 25.316406 16.589844 25.371094 16.71875 25.515625 C 16.800781 25.617188 16.929688 25.679688 17.085938 25.703125 C 17.296875 25.734375 17.355469 25.710938 17.527344 25.558594 L 17.726562 25.382812 L 17.742188 24.375 L 17.761719 23.371094 L 18.324219 22.511719 C 18.980469 21.503906 19.03125 21.328125 18.761719 21.027344 C 18.617188 20.863281 18.546875 20.828125 18.351562 20.828125 C 18.054688 20.828125 17.972656 20.90625 17.515625 21.597656 L 17.152344 22.152344 L 16.757812 21.550781 C 16.273438 20.792969 16.0625 20.671875 15.667969 20.910156 Z M 15.667969 20.910156 "/>
<path style=" stroke:none;fill-rule:nonzero;fill:rgb(0%,0%,0%);fill-opacity:1;" d="M 20.773438 20.851562 C 20.082031 21.023438 19.570312 21.625 19.570312 22.28125 C 19.570312 22.359375 19.613281 22.539062 19.664062 22.691406 C 19.804688 23.101562 20.132812 23.359375 20.90625 23.660156 C 21.257812 23.800781 21.605469 23.953125 21.675781 24 C 21.933594 24.179688 21.746094 24.480469 21.339844 24.53125 C 21.042969 24.574219 20.753906 24.472656 20.4375 24.226562 C 20.109375 23.964844 19.800781 23.945312 19.558594 24.179688 C 19.429688 24.304688 19.394531 24.390625 19.394531 24.589844 C 19.394531 24.808594 19.429688 24.878906 19.628906 25.078125 C 20.386719 25.832031 21.691406 25.933594 22.425781 25.289062 C 22.941406 24.832031 23.097656 24.210938 22.828125 23.636719 C 22.628906 23.203125 22.308594 22.960938 21.492188 22.632812 C 21.105469 22.480469 20.773438 22.316406 20.761719 22.277344 C 20.707031 22.152344 20.878906 22.023438 21.128906 21.988281 C 21.316406 21.964844 21.433594 22 21.761719 22.171875 C 22.207031 22.40625 22.3125 22.421875 22.554688 22.300781 C 22.847656 22.148438 22.945312 21.695312 22.742188 21.433594 C 22.414062 21.015625 21.371094 20.710938 20.773438 20.851562 Z M 20.773438 20.851562 "/>
</g>
</svg>
