<?xml version="1.0" encoding="UTF-8"?>
<svg xmlns="http://www.w3.org/2000/svg" xmlns:xlink="http://www.w3.org/1999/xlink" width="30px" height="30px" viewBox="0 0 30 30" version="1.1">
<g id="surface1">
<path style=" stroke:none;fill-rule:nonzero;fill:rgb(0%,0%,0%);fill-opacity:1;" d="M 13.367188 0.09375 C 12.898438 0.214844 12.492188 0.457031 12.125 0.820312 C 11.566406 1.363281 11.308594 2.027344 11.308594 2.871094 L 11.308594 3.378906 L 10.800781 3.574219 C 10.511719 3.679688 10.089844 3.855469 9.851562 3.964844 L 9.410156 4.164062 L 9.089844 3.84375 C 8.269531 3.046875 7.300781 2.757812 6.300781 3.015625 C 5.703125 3.175781 5.363281 3.421875 4.390625 4.386719 C 3.421875 5.359375 3.175781 5.699219 3.019531 6.296875 C 2.761719 7.300781 3.046875 8.265625 3.84375 9.082031 L 4.160156 9.410156 L 3.902344 9.988281 C 3.761719 10.3125 3.585938 10.738281 3.515625 10.9375 L 3.382812 11.308594 L 2.871094 11.308594 C 2.027344 11.308594 1.371094 11.566406 0.816406 12.121094 C 0.136719 12.808594 0 13.277344 0 15 C 0 16.726562 0.128906 17.171875 0.820312 17.875 C 1.367188 18.433594 2.027344 18.691406 2.871094 18.691406 L 3.382812 18.691406 L 3.574219 19.199219 C 3.679688 19.488281 3.855469 19.910156 3.96875 20.148438 L 4.167969 20.589844 L 3.84375 20.910156 C 3.667969 21.09375 3.445312 21.367188 3.347656 21.53125 C 2.820312 22.375 2.796875 23.488281 3.292969 24.367188 C 3.539062 24.808594 5.191406 26.460938 5.632812 26.707031 C 6.464844 27.175781 7.5 27.1875 8.34375 26.730469 C 8.507812 26.640625 8.8125 26.40625 9.03125 26.207031 L 9.417969 25.839844 L 9.996094 26.089844 C 10.320312 26.230469 10.742188 26.40625 10.945312 26.484375 L 11.308594 26.613281 L 11.308594 27.121094 C 11.308594 27.972656 11.566406 28.632812 12.125 29.179688 C 12.828125 29.871094 13.273438 30 15 30 C 16.722656 30 17.191406 29.863281 17.878906 29.183594 C 18.433594 28.628906 18.691406 27.972656 18.691406 27.121094 L 18.691406 26.613281 L 19.0625 26.484375 C 19.261719 26.40625 19.683594 26.230469 20.003906 26.089844 L 20.585938 25.839844 L 20.972656 26.207031 C 21.1875 26.40625 21.492188 26.640625 21.65625 26.730469 C 22.484375 27.175781 23.507812 27.175781 24.339844 26.730469 C 24.734375 26.519531 26.449219 24.808594 26.703125 24.375 C 27.175781 23.558594 27.1875 22.503906 26.730469 21.65625 C 26.644531 21.492188 26.410156 21.1875 26.210938 20.96875 L 25.839844 20.582031 L 26.09375 20.003906 C 26.234375 19.679688 26.410156 19.257812 26.484375 19.054688 L 26.613281 18.691406 L 27.125 18.691406 C 27.992188 18.691406 28.625 18.4375 29.179688 17.875 C 29.871094 17.171875 30 16.726562 30 15 C 30 13.269531 29.871094 12.824219 29.179688 12.121094 C 28.625 11.558594 27.992188 11.308594 27.125 11.308594 L 26.613281 11.308594 L 26.484375 10.9375 C 26.410156 10.738281 26.234375 10.316406 26.09375 9.996094 L 25.839844 9.414062 L 26.210938 9.027344 C 26.410156 8.8125 26.644531 8.507812 26.730469 8.34375 C 27.1875 7.5 27.175781 6.460938 26.707031 5.628906 C 26.460938 5.195312 24.75 3.484375 24.339844 3.269531 C 23.460938 2.792969 22.359375 2.824219 21.535156 3.34375 C 21.375 3.445312 21.09375 3.667969 20.914062 3.84375 L 20.589844 4.164062 L 20.152344 3.964844 C 19.910156 3.855469 19.488281 3.679688 19.207031 3.574219 L 18.691406 3.378906 L 18.691406 2.871094 C 18.691406 2.027344 18.433594 1.371094 17.878906 0.8125 C 17.507812 0.445312 17.109375 0.222656 16.601562 0.0859375 C 16.136719 -0.0351562 13.824219 -0.03125 13.367188 0.09375 Z M 16.390625 1.878906 C 16.558594 1.960938 16.695312 2.085938 16.789062 2.25 C 16.921875 2.484375 16.933594 2.554688 16.933594 3.328125 C 16.933594 4.253906 17.003906 4.550781 17.28125 4.734375 C 17.363281 4.792969 17.777344 4.949219 18.195312 5.089844 C 18.617188 5.226562 19.324219 5.523438 19.777344 5.746094 C 20.226562 5.96875 20.65625 6.152344 20.730469 6.152344 C 21.011719 6.152344 21.3125 5.953125 21.878906 5.390625 C 22.488281 4.792969 22.660156 4.6875 23 4.6875 C 23.351562 4.6875 23.515625 4.796875 24.339844 5.613281 C 25.167969 6.433594 25.3125 6.636719 25.3125 6.996094 C 25.3125 7.339844 25.207031 7.511719 24.609375 8.121094 C 24.042969 8.695312 23.847656 8.988281 23.847656 9.273438 C 23.847656 9.351562 24.03125 9.785156 24.257812 10.234375 C 24.480469 10.691406 24.773438 11.402344 24.910156 11.8125 C 25.050781 12.226562 25.207031 12.636719 25.265625 12.71875 C 25.449219 12.996094 25.746094 13.066406 26.671875 13.066406 C 27.445312 13.066406 27.515625 13.078125 27.75 13.210938 C 28.191406 13.46875 28.242188 13.667969 28.242188 15 C 28.242188 16.328125 28.191406 16.527344 27.75 16.785156 C 27.515625 16.921875 27.445312 16.933594 26.671875 16.933594 C 25.746094 16.933594 25.449219 17.003906 25.265625 17.277344 C 25.207031 17.359375 25.050781 17.769531 24.910156 18.1875 C 24.773438 18.597656 24.480469 19.304688 24.257812 19.761719 C 24.03125 20.214844 23.847656 20.648438 23.847656 20.722656 C 23.847656 21.011719 24.042969 21.304688 24.609375 21.878906 C 25.207031 22.488281 25.3125 22.65625 25.3125 22.996094 C 25.3125 23.347656 25.203125 23.507812 24.394531 24.328125 C 23.5625 25.164062 23.355469 25.3125 23.011719 25.3125 C 22.660156 25.3125 22.496094 25.207031 21.878906 24.609375 C 21.304688 24.039062 21.011719 23.847656 20.71875 23.847656 C 20.644531 23.847656 20.210938 24.027344 19.765625 24.25 C 19.320312 24.472656 18.617188 24.773438 18.195312 24.90625 C 17.777344 25.046875 17.363281 25.207031 17.28125 25.265625 C 17.003906 25.445312 16.933594 25.746094 16.933594 26.671875 C 16.933594 27.445312 16.921875 27.515625 16.789062 27.75 C 16.53125 28.1875 16.332031 28.242188 15 28.242188 C 13.671875 28.242188 13.472656 28.1875 13.214844 27.75 C 13.078125 27.515625 13.066406 27.445312 13.066406 26.671875 C 13.066406 25.746094 12.996094 25.445312 12.722656 25.265625 C 12.640625 25.207031 12.230469 25.042969 11.808594 24.90625 C 11.390625 24.765625 10.675781 24.472656 10.230469 24.25 C 9.78125 24.027344 9.351562 23.847656 9.277344 23.847656 C 8.988281 23.847656 8.695312 24.039062 8.121094 24.609375 C 7.511719 25.207031 7.34375 25.3125 6.996094 25.3125 C 6.640625 25.3125 6.433594 25.164062 5.613281 24.339844 C 4.800781 23.511719 4.6875 23.347656 4.6875 22.996094 C 4.6875 22.65625 4.792969 22.488281 5.390625 21.878906 C 5.960938 21.304688 6.152344 21.011719 6.152344 20.722656 C 6.152344 20.648438 5.972656 20.214844 5.742188 19.761719 C 5.519531 19.304688 5.226562 18.597656 5.09375 18.1875 C 4.953125 17.769531 4.792969 17.359375 4.734375 17.277344 C 4.554688 17.003906 4.253906 16.933594 3.328125 16.933594 C 2.554688 16.933594 2.484375 16.921875 2.25 16.785156 C 1.8125 16.527344 1.757812 16.328125 1.757812 15 C 1.757812 13.667969 1.8125 13.46875 2.25 13.210938 C 2.484375 13.078125 2.554688 13.066406 3.328125 13.066406 C 4.253906 13.066406 4.554688 12.996094 4.734375 12.71875 C 4.792969 12.636719 4.957031 12.222656 5.09375 11.804688 C 5.226562 11.382812 5.527344 10.675781 5.75 10.230469 C 5.972656 9.777344 6.152344 9.351562 6.152344 9.273438 C 6.152344 8.988281 5.960938 8.695312 5.390625 8.121094 C 4.792969 7.511719 4.6875 7.339844 4.6875 6.996094 C 4.6875 6.636719 4.835938 6.433594 5.660156 5.613281 C 6.488281 4.796875 6.652344 4.6875 7.003906 4.6875 C 7.34375 4.6875 7.511719 4.792969 8.121094 5.390625 C 8.695312 5.957031 8.988281 6.152344 9.277344 6.152344 C 9.351562 6.152344 9.785156 5.96875 10.238281 5.742188 C 10.695312 5.519531 11.402344 5.226562 11.8125 5.089844 C 12.230469 4.949219 12.640625 4.792969 12.722656 4.734375 C 12.996094 4.550781 13.066406 4.253906 13.066406 3.328125 C 13.066406 2.554688 13.078125 2.484375 13.214844 2.253906 C 13.308594 2.089844 13.441406 1.960938 13.605469 1.878906 C 13.835938 1.769531 13.957031 1.757812 14.996094 1.757812 C 16.03125 1.757812 16.160156 1.769531 16.390625 1.878906 Z M 16.390625 1.878906 "/>
<path style=" stroke:none;fill-rule:nonzero;fill:rgb(0%,0%,0%);fill-opacity:1;" d="M 13.683594 8.613281 C 11.246094 9.140625 9.335938 10.945312 8.683594 13.347656 C 8.542969 13.863281 8.53125 14.015625 8.53125 15 C 8.53125 15.984375 8.542969 16.136719 8.683594 16.652344 C 9.300781 18.917969 11.082031 20.699219 13.347656 21.316406 C 13.863281 21.457031 14.015625 21.46875 15 21.46875 C 15.984375 21.46875 16.136719 21.457031 16.652344 21.316406 C 18.921875 20.699219 20.703125 18.917969 21.316406 16.652344 C 21.457031 16.136719 21.46875 15.984375 21.46875 15 C 21.46875 14.015625 21.457031 13.863281 21.316406 13.347656 C 20.703125 11.078125 18.910156 9.28125 16.671875 8.695312 C 15.855469 8.476562 14.46875 8.441406 13.683594 8.613281 Z M 16.097656 10.371094 C 18.265625 10.890625 19.746094 12.765625 19.746094 15 C 19.746094 17.660156 17.660156 19.746094 15 19.746094 C 13.6875 19.746094 12.570312 19.28125 11.636719 18.363281 C 10.050781 16.785156 9.785156 14.273438 11.015625 12.402344 C 11.691406 11.371094 12.796875 10.597656 13.96875 10.339844 C 14.527344 10.222656 15.527344 10.234375 16.097656 10.371094 Z M 16.097656 10.371094 "/>
</g>
</svg>
