<?xml version="1.0" encoding="UTF-8"?>
<svg xmlns="http://www.w3.org/2000/svg" xmlns:xlink="http://www.w3.org/1999/xlink" width="30px" height="30px" viewBox="0 0 30 30" version="1.1">
<g id="surface1">
<path style=" stroke:none;fill-rule:nonzero;fill:rgb(0%,0%,0%);fill-opacity:1;" d="M 13.195312 1.664062 C 9.75 2.320312 7.347656 5.320312 7.519531 8.757812 C 7.699219 12.4375 10.699219 15.292969 14.386719 15.292969 C 15.925781 15.292969 17.285156 14.835938 18.527344 13.898438 C 20.398438 12.492188 21.457031 10.089844 21.210938 7.820312 C 20.894531 4.839844 18.921875 2.523438 16.0625 1.773438 C 15.359375 1.59375 13.886719 1.535156 13.195312 1.664062 Z M 15.398438 3.550781 C 16.847656 3.847656 18.140625 4.839844 18.804688 6.15625 C 19.226562 7.007812 19.347656 7.523438 19.347656 8.4375 C 19.347656 9.351562 19.226562 9.867188 18.804688 10.714844 C 18.136719 12.046875 16.835938 13.03125 15.359375 13.328125 C 14.703125 13.464844 13.636719 13.421875 13.007812 13.242188 C 11.71875 12.871094 10.601562 11.964844 9.96875 10.773438 C 8.410156 7.839844 10.085938 4.269531 13.359375 3.539062 C 13.828125 3.433594 14.867188 3.4375 15.398438 3.550781 Z M 15.398438 3.550781 "/>
<path style=" stroke:none;fill-rule:nonzero;fill:rgb(0%,0%,0%);fill-opacity:1;" d="M 21.597656 15.351562 C 21.359375 15.425781 21.046875 15.75 20.976562 15.996094 C 20.949219 16.105469 20.917969 16.492188 20.917969 16.855469 L 20.917969 17.507812 L 20.527344 17.636719 C 20.304688 17.710938 19.976562 17.847656 19.789062 17.945312 L 19.449219 18.121094 L 18.9375 17.625 C 18.351562 17.042969 18.246094 16.980469 17.902344 16.980469 C 17.367188 16.980469 16.980469 17.367188 16.980469 17.898438 C 16.980469 18.246094 17.046875 18.351562 17.625 18.9375 L 18.125 19.445312 L 17.949219 19.785156 C 17.847656 19.972656 17.714844 20.300781 17.636719 20.519531 L 17.507812 20.917969 L 16.859375 20.917969 C 16.496094 20.917969 16.109375 20.945312 15.984375 20.976562 C 15.699219 21.058594 15.375 21.421875 15.324219 21.730469 C 15.269531 22.042969 15.46875 22.46875 15.757812 22.65625 C 15.9375 22.78125 16.027344 22.792969 16.734375 22.792969 L 17.515625 22.792969 L 17.609375 23.132812 C 17.660156 23.3125 17.800781 23.660156 17.914062 23.894531 L 18.125 24.320312 L 17.589844 24.859375 C 17.015625 25.441406 16.910156 25.65625 17 26.066406 C 17.117188 26.628906 17.773438 26.941406 18.304688 26.6875 C 18.40625 26.640625 18.710938 26.378906 18.972656 26.113281 L 19.460938 25.628906 L 19.886719 25.84375 C 20.121094 25.960938 20.449219 26.089844 20.613281 26.136719 L 20.917969 26.214844 L 20.917969 26.921875 C 20.917969 27.539062 20.9375 27.660156 21.054688 27.890625 C 21.292969 28.375 21.816406 28.550781 22.300781 28.324219 C 22.695312 28.136719 22.757812 27.960938 22.792969 27.050781 L 22.824219 26.238281 L 23.246094 26.101562 C 23.480469 26.03125 23.808594 25.890625 23.984375 25.792969 L 24.300781 25.617188 L 24.792969 26.113281 C 25.0625 26.390625 25.367188 26.648438 25.472656 26.695312 C 26.25 27.027344 27.03125 26.25 26.695312 25.46875 C 26.648438 25.363281 26.390625 25.058594 26.117188 24.789062 L 25.617188 24.296875 L 25.792969 23.980469 C 25.894531 23.804688 26.035156 23.476562 26.105469 23.242188 L 26.238281 22.820312 L 27.054688 22.792969 C 27.960938 22.757812 28.136719 22.691406 28.324219 22.300781 C 28.554688 21.8125 28.378906 21.292969 27.890625 21.046875 C 27.664062 20.933594 27.539062 20.917969 26.925781 20.917969 L 26.214844 20.917969 L 26.140625 20.613281 C 26.09375 20.449219 25.964844 20.121094 25.847656 19.886719 L 25.628906 19.457031 L 26.117188 18.972656 C 26.378906 18.707031 26.644531 18.402344 26.691406 18.304688 C 26.941406 17.769531 26.632812 17.113281 26.070312 16.996094 C 25.660156 16.910156 25.441406 17.015625 24.863281 17.589844 L 24.324219 18.121094 L 23.894531 17.910156 C 23.660156 17.800781 23.316406 17.660156 23.132812 17.605469 L 22.792969 17.511719 L 22.792969 16.734375 C 22.792969 16.023438 22.78125 15.9375 22.660156 15.753906 C 22.523438 15.542969 22.089844 15.285156 21.886719 15.296875 C 21.820312 15.296875 21.691406 15.328125 21.597656 15.351562 Z M 22.929688 19.523438 C 23.308594 19.703125 23.894531 20.230469 24.105469 20.589844 C 24.5 21.261719 24.546875 22.21875 24.21875 22.925781 C 23.960938 23.472656 23.527344 23.917969 22.980469 24.179688 C 22.605469 24.367188 22.484375 24.398438 22.039062 24.421875 C 21.175781 24.460938 20.613281 24.238281 20.027344 23.625 C 19.5 23.074219 19.324219 22.617188 19.324219 21.84375 C 19.332031 20.765625 19.917969 19.914062 20.960938 19.476562 C 21.265625 19.347656 21.371094 19.335938 21.945312 19.347656 C 22.496094 19.363281 22.636719 19.386719 22.929688 19.523438 Z M 22.929688 19.523438 "/>
<path style=" stroke:none;fill-rule:nonzero;fill:rgb(0%,0%,0%);fill-opacity:1;" d="M 12.65625 16.445312 C 11.28125 16.550781 9.675781 16.820312 8.410156 17.171875 C 4.601562 18.214844 2.097656 20.203125 1.640625 22.535156 C 1.601562 22.75 1.582031 23.382812 1.59375 24.257812 C 1.613281 25.609375 1.613281 25.640625 1.769531 25.96875 C 1.96875 26.394531 2.375 26.800781 2.800781 27 L 3.136719 27.15625 L 8.867188 27.175781 C 14.082031 27.1875 14.613281 27.179688 14.800781 27.09375 C 15.09375 26.953125 15.253906 26.695312 15.28125 26.3125 C 15.3125 25.902344 15.152344 25.640625 14.765625 25.441406 L 14.507812 25.3125 L 9.054688 25.3125 C 4.886719 25.3125 3.582031 25.292969 3.527344 25.242188 C 3.476562 25.1875 3.457031 24.835938 3.457031 24.023438 C 3.457031 23.03125 3.476562 22.820312 3.570312 22.539062 C 4.054688 21.128906 6.082031 19.761719 8.832031 18.988281 C 10.285156 18.578125 11.808594 18.355469 13.472656 18.296875 C 14.683594 18.257812 14.914062 18.191406 15.164062 17.8125 C 15.339844 17.546875 15.328125 17.050781 15.128906 16.773438 C 14.90625 16.457031 14.703125 16.40625 13.757812 16.417969 C 13.300781 16.421875 12.804688 16.433594 12.65625 16.445312 Z M 12.65625 16.445312 "/>
</g>
</svg>
